<svg width="100" height="72" viewBox="0 0 100 72" fill="none" xmlns="http://www.w3.org/2000/svg">
<path d="M26 48.456L17.524 60H11.752L3.536 48.456V24.068H8.788V47.52L14.092 55.632H15.444L20.852 47.52V24.068H26V48.456Z" fill="white"/>
<path d="M52.88 71.09H46.86L40.77 65V43.86H35.59V37.77H40.77V16.63L46.86 10.54H52.88V16.63H47.7V36.51L43.36 40.92L47.7 45.26V65H52.88V71.09ZM73.6388 65H78.8188V45.26L83.1588 40.92L78.8188 36.51V16.63H73.6388V10.54H79.6588L85.6788 16.63V37.77H90.9288V43.86H85.6788V65L79.6588 71.09H73.6388V65Z" fill="white"/>
<path d="M56.3 58H52.97V54.67H56.3V58ZM65.5578 58H62.2278V54.67H65.5578V58ZM74.8156 58H71.4856V54.67H74.8156V58Z" fill="white"/>
</svg>
