<svg xmlns="http://www.w3.org/2000/svg" viewBox="0 0 293.129 293.129"><path d="M162.179 140.514a24.18 24.18 0 0111.042-2.64 24.135 24.135 0 0117.133 7.071l9.868-9.867c24.42 8.56 52.664 3.08 72.186-16.441 16.426-16.426 22.904-39.026 19.446-60.329a6.33 6.33 0 00-4.303-5.011 6.328 6.328 0 00-6.423 1.544l-14.652 14.652c-11.932 11.932-31.279 11.932-43.211 0-11.933-11.932-11.933-31.279 0-43.211l14.652-14.652A6.331 6.331 0 00234.449.904c-21.302-3.458-43.903 3.02-60.328 19.446-19.812 19.812-25.144 48.604-16.032 73.269l-21.402 21.402 25.492 25.493zM123.179 179.296l-25.385-25.385-88.765 88.764c-11.542 11.542-11.542 30.255 0 41.797 11.542 11.542 30.255 11.542 41.797 0l76.521-76.52c-7.718-7.759-9.109-19.473-4.168-28.656z"/><path d="M179.795 155.597c-1.815-1.815-4.195-2.723-6.574-2.723s-4.759.908-6.574 2.723l-5.299 5.299-94.392-94.392 4.412-4.412c4.02-4.019 3.521-10.686-1.061-14.06L31.795 19.669a9.297 9.297 0 00-12.087.912L3.356 36.934a9.297 9.297 0 00-.912 12.087l28.362 38.512c3.374 4.581 10.037 5.085 14.06 1.061l4.412-4.413 94.392 94.392-5.672 5.672a9.297 9.297 0 000 13.148l87.079 87.079c11.542 11.542 30.255 11.542 41.797 0 11.542-11.542 11.542-30.255 0-41.797l-87.079-87.078z"/></svg>