<svg width="132" height="112" viewBox="0 0 132 112" fill="none" xmlns="http://www.w3.org/2000/svg">
<path fill-rule="evenodd" clip-rule="evenodd" d="M60.6398 0.492738C60.1766 0.533209 59.6556 0.614149 59.4915 0.674855C59.3275 0.735562 58.9608 0.786149 58.6906 0.786149C58.3915 0.786149 58.0055 0.867091 57.7643 0.988504C57.5327 1.0998 57.2626 1.19086 57.1757 1.19086C57.0792 1.19086 56.7319 1.33251 56.4038 1.50451C56.0661 1.67651 55.516 1.92945 55.1687 2.0711C54.8213 2.20263 54.3485 2.42522 54.1073 2.54663C53.866 2.66804 53.5187 2.85017 53.3353 2.93111C52.1581 3.48758 51.666 3.78099 51.0291 4.26664C50.6432 4.58029 50.2765 4.88382 50.209 4.96476C50.1511 5.03558 49.8423 5.29865 49.5335 5.55159C49.2151 5.79442 48.7326 6.22948 48.4625 6.51278C48.1923 6.79607 47.7967 7.12995 47.5747 7.24125C47.3046 7.39301 47.044 7.66619 46.7352 8.14172C45.8186 9.56832 45.5387 9.97303 45.0563 10.6104C43.8405 12.1989 42.8176 13.9493 42.8176 14.4349C42.8176 14.5361 42.7405 14.7283 42.644 14.8599C42.5475 14.9914 42.3641 15.3557 42.2483 15.6592C41.8817 16.5799 41.708 16.9644 41.6597 16.9745C41.6308 16.9745 41.4764 16.7114 41.3027 16.3877C41.1387 16.074 40.8299 15.6288 40.6273 15.4062C40.2703 15.0116 39.8071 14.4451 39.1702 13.6154C38.9966 13.3827 38.7264 13.0994 38.5623 12.9679C38.1378 12.634 37.3272 11.8145 36.9413 11.3288C36.7676 11.0961 36.5746 10.9039 36.5263 10.9039C36.4781 10.9039 36.2948 10.7926 36.1307 10.661C35.822 10.4182 34.9728 9.91232 34.0851 9.44691C33.8246 9.30526 33.5351 9.14338 33.4579 9.09279C32.8403 8.68808 31.1517 7.8989 30.3701 7.64596C30.1868 7.59537 29.8877 7.43348 29.7043 7.30195C29.5114 7.17042 29.2798 7.05913 29.1929 7.05913C29.0964 7.05913 28.7684 6.96807 28.4692 6.86689C27.8903 6.66454 26.3271 6.45207 25.4008 6.45207C25.0534 6.45207 24.7446 6.38124 24.5131 6.24971C24.3104 6.13842 23.992 6.04736 23.8087 6.04736C23.6253 6.04736 23.3359 6.00689 23.1622 5.9563C22.9788 5.90571 21.9657 5.90571 20.6051 5.96642C18.6753 6.04736 18.1928 6.09795 17.1989 6.35089C16.5621 6.51277 15.7998 6.67466 15.5103 6.70501C15.1823 6.7556 14.584 6.97819 13.9664 7.28172C13.4068 7.5549 12.712 7.90902 12.4226 8.05066C12.1331 8.19231 11.6796 8.45537 11.4094 8.62737C11.1489 8.78926 10.8208 8.99161 10.6857 9.06244C10.2418 9.29514 9.32516 10.0641 8.62077 10.7824C8.24445 11.1568 7.69445 11.6526 7.40497 11.865C6.75847 12.3406 5.75495 13.4131 5.33038 14.0909C5.1567 14.3641 4.77073 14.8498 4.4716 15.1533C4.17247 15.4568 3.93125 15.7806 3.93125 15.8717C3.93125 15.9728 3.9023 16.0639 3.8637 16.0841C3.73826 16.1347 3.35229 16.7519 3.35229 16.8834C3.35229 16.9542 3.28475 17.0858 3.20755 17.1768C3.13036 17.2578 2.89878 17.6928 2.67685 18.1279C2.46457 18.5731 2.25228 18.9778 2.20403 19.0385C2.16544 19.0992 2.04964 19.4634 1.9628 19.8479C1.87596 20.2324 1.74087 20.6674 1.66368 20.8293C1.58648 20.9811 1.51894 21.1936 1.51894 21.2948C1.50929 21.3959 1.4321 21.659 1.32596 21.8816C1.21982 22.1042 1.14262 22.3672 1.13297 22.4684C1.13297 22.5696 1.08472 22.7517 1.02683 22.863C0.968933 22.9743 0.882091 23.6319 0.843494 24.3098C0.804897 24.9877 0.718052 25.6454 0.660156 25.7567C0.592612 25.8983 0.554016 26.9101 0.554016 28.711C0.554016 30.9167 0.582963 31.5238 0.698753 31.8172C0.775947 32.0094 0.843489 32.4546 0.853138 32.7986C0.853138 33.1325 0.901385 33.6384 0.949631 33.9216L0.958736 33.9732C1.00815 34.2526 1.08704 34.6987 1.12332 34.984C1.17157 35.2875 1.27771 35.672 1.36456 35.844C1.4514 36.0059 1.51894 36.2386 1.51894 36.3499C1.52859 36.4612 1.58648 36.6636 1.66368 36.8052C1.74087 36.9469 1.79877 37.1593 1.80841 37.2706C1.80841 37.4628 2.04965 38.0901 2.28123 38.5252C2.32948 38.6061 2.53211 39.0412 2.72509 39.4864C2.92773 39.9316 3.21721 40.4476 3.37159 40.6297C3.51633 40.8118 3.64177 41.0243 3.64177 41.0951C3.64177 41.176 3.70932 41.2873 3.78651 41.3582C3.8637 41.429 3.93125 41.5605 3.93125 41.6516C3.93125 41.7426 4.08564 42.0563 4.26897 42.3598C4.45231 42.6532 4.60669 42.9163 4.60669 42.9467C4.60669 43.0175 6.44005 45.4154 7.04795 46.154C8.36989 47.7323 9.5085 48.7947 11.8726 50.6968C12.2006 50.9599 12.6638 51.3747 12.905 51.6175C13.1463 51.8604 13.5322 52.1841 13.7735 52.3258C14.4326 52.7365 14.5432 52.81 15.2102 53.2532L15.2305 53.2667C15.5875 53.5095 15.9542 53.7018 16.0507 53.7018C16.1472 53.7018 16.4174 53.9142 16.6586 54.1773C17.1603 54.7237 18.1349 55.4825 18.7911 55.8265C19.0323 55.9479 19.2446 56.0896 19.2735 56.13C19.3218 56.211 19.7174 56.4538 20.4893 56.8889C20.7113 57.0103 21.0393 57.2329 21.2227 57.3846C21.406 57.5263 21.599 57.6477 21.6472 57.6477C21.6955 57.6477 21.9753 57.85 22.2744 58.0929C22.5736 58.3458 23.0174 58.6392 23.249 58.7505C23.4902 58.8618 23.7411 59.0237 23.8087 59.1147C23.8762 59.1957 23.9727 59.2665 24.0306 59.2665C24.0885 59.2665 24.2043 59.3272 24.2815 59.398C24.3683 59.479 24.5903 59.6004 24.7736 59.6712C24.9569 59.742 25.1982 59.8837 25.3043 59.9849C25.4104 60.0759 25.7675 60.2985 26.0955 60.4604C26.7131 60.774 27.2631 61.199 28.1026 61.9983C28.3728 62.2512 28.7394 62.5244 28.9228 62.6054C29.1061 62.6762 29.3473 62.8178 29.4535 62.919C29.5596 63.0101 29.878 63.2225 30.1675 63.3743C30.4473 63.5362 30.8044 63.8094 30.9491 63.9915C31.0938 64.1635 31.3158 64.3658 31.4412 64.4265C31.7017 64.5682 32.1552 64.8717 33.6123 65.8734C34.1526 66.2477 34.6158 66.5513 34.6447 66.5513C34.7798 66.5513 35.4553 67.0976 35.7641 67.4416C35.9378 67.644 36.5071 68.1094 37.0185 68.4736C37.5299 68.8379 38.0316 69.283 38.1378 69.455C38.2439 69.627 38.5334 69.9104 38.7843 70.0824C39.0352 70.2645 39.3053 70.5376 39.3922 70.6894C39.4694 70.8513 39.7202 71.0941 39.9422 71.2358C40.1738 71.3774 40.8975 72.025 41.5633 72.6624C42.229 73.3099 42.9913 74.0181 43.2712 74.2306C43.5413 74.4532 43.8694 74.7871 43.9852 74.9692C44.2457 75.3537 45.6835 77.0838 46.3589 77.8325C46.6098 78.1158 47.0344 78.6318 47.3045 78.9961C47.5651 79.3502 47.9221 79.7245 48.0861 79.8257C48.2791 79.9471 48.4914 80.2304 48.6651 80.5947C48.8098 80.9083 49.0897 81.3838 49.273 81.6469C49.6783 82.2034 50.2958 83.1949 50.566 83.7311C50.6721 83.9335 50.8748 84.2674 51.0195 84.4596C51.2897 84.8239 51.695 85.5624 51.695 85.694C51.695 85.7344 51.83 85.9672 51.9844 86.21C52.1485 86.4629 52.2739 86.6956 52.2739 86.7462C52.2739 86.7867 52.4283 87.1712 52.6213 87.586C53.1037 88.6585 53.123 88.709 53.1906 89.1542C53.2195 89.3667 53.2871 89.6197 53.3353 89.7107C53.3836 89.8018 53.4511 90.0345 53.4801 90.2368C53.509 90.4493 53.5958 90.6618 53.673 90.7326C53.7502 90.8034 53.8371 91.0159 53.8757 91.2284C53.9336 91.6027 54.059 92.0884 54.223 92.574C54.3678 92.9888 54.1458 93.5048 53.7406 93.7376C53.5476 93.8387 53.3257 94.0613 53.2388 94.2232C52.9879 94.6987 52.5923 94.891 52.1002 94.7696C51.8686 94.719 51.6467 94.6987 51.5888 94.7291C51.4634 94.8201 51.4827 95.0832 51.6081 95.0832C51.7721 95.0832 51.6564 96.2164 51.4537 96.5301C51.309 96.7628 51.2993 97.0359 51.3283 98.7458C51.3669 100.759 51.4344 101.103 51.8397 101.457C51.9265 101.528 52.052 101.731 52.1292 101.903C52.4958 102.722 54.0976 104.088 54.6862 104.088C54.7827 104.088 54.8985 104.139 54.9274 104.189C54.966 104.25 55.1301 104.361 55.3038 104.432C55.902 104.695 55.9406 104.918 55.9406 107.811C55.9406 109.491 55.902 110.523 55.8248 110.786C55.738 111.089 58.3529 111.737 58.4494 112C58.4977 111.98 58.5459 111.879 58.5459 111.767C58.5459 111.666 58.5941 111.575 58.6424 111.575C58.7003 111.575 58.7389 111.504 58.7389 111.423C58.7389 111.342 58.8064 111.272 58.8836 111.272C58.9608 111.272 59.0284 111.18 59.0284 111.069C59.0284 110.958 59.067 110.867 59.1056 110.867C59.1538 110.867 59.2214 110.24 59.2503 109.481C59.2889 108.722 59.3564 108.074 59.395 108.044C59.5591 107.923 59.7038 107.123 59.7038 106.375C59.7038 105.95 59.7424 105.606 59.7907 105.606C59.8389 105.606 59.945 105.575 60.0222 105.545C60.1284 105.504 60.1766 105.626 60.2152 106.081C60.2538 106.567 60.2345 106.719 60.0608 106.972C59.8775 107.235 59.8582 107.447 59.8196 108.944C59.781 110.624 59.781 110.624 60.0222 110.917C60.2442 111.191 60.3214 111.221 60.8907 111.221C61.46 111.221 61.5468 111.191 61.817 110.917C62.0872 110.634 62.1065 110.563 62.1161 109.875C62.1161 109.45 62.0582 109.025 61.981 108.864C61.8459 108.57 61.7205 107.751 61.6723 106.719C61.6626 106.354 61.6144 105.818 61.5854 105.525C61.5082 104.887 61.653 104.614 61.8845 104.948C61.9617 105.059 62.0872 105.231 62.1644 105.322C62.2898 105.474 62.4731 107.255 62.4442 107.953C62.4442 108.074 62.5117 108.135 62.6468 108.135C62.8495 108.135 62.8591 108.084 62.917 106.8C62.9556 106.031 63.0231 105.444 63.081 105.424C63.1293 105.403 63.1775 105.211 63.1775 105.009C63.1775 104.705 63.2547 104.543 63.5153 104.25C63.9012 103.815 64.0267 103.309 63.8433 102.854C63.7275 102.56 63.7372 102.52 63.9302 102.388C64.046 102.307 64.1425 102.186 64.1425 102.105C64.1425 101.953 64.7021 101.255 64.8275 101.255C64.9626 101.255 65.3583 100.82 65.5512 100.446C65.6477 100.253 65.7828 100.061 65.8311 100.021C65.889 99.9802 65.9179 99.6261 65.8986 99.2315C65.8793 98.675 65.9083 98.503 66.0144 98.4625C66.2074 98.3816 66.1109 97.8251 65.86 97.6025C65.7635 97.5115 65.6863 97.3597 65.6863 97.2686C65.6863 97.1776 65.6188 97.1068 65.5416 97.1068C65.4548 97.1068 65.3969 97.0157 65.3969 96.8639C65.3969 96.702 65.3293 96.5908 65.2039 96.5503C65.0784 96.5098 65.0109 96.3985 65.0109 96.2366C65.0109 96.1051 64.9723 95.9938 64.9144 95.9938C64.8662 95.9938 64.8179 95.9027 64.8179 95.7915C64.8179 95.6802 64.7697 95.5891 64.7118 95.5891C64.6539 95.5891 64.6249 95.4171 64.6442 95.1642C64.6732 94.7493 64.6635 94.7392 64.3354 94.6684C64.1521 94.6279 63.9881 94.5571 63.9784 94.5065C63.9658 94.4733 63.8825 94.3617 63.7695 94.2232L62.367 93.5858L59.6363 94.6684L57.0718 94.5065L55.9406 92.8776L57.0718 90.1356C57.0286 89.9801 56.9767 89.8352 56.9248 89.7309C56.7897 89.4679 56.7126 89.1239 56.7126 88.8204C56.7126 88.5472 56.6643 88.3043 56.6064 88.2841C56.5582 88.2639 56.4713 88.0514 56.4134 87.8086C56.3652 87.5657 56.2108 87.2218 56.0853 87.0498C55.9503 86.8676 55.8441 86.645 55.8441 86.554C55.8441 86.473 55.8055 86.382 55.7669 86.3618C55.6415 86.3112 54.8792 84.5912 54.8792 84.3584C54.8792 84.2471 54.8406 84.1561 54.7924 84.1561C54.7345 84.1561 54.5511 83.9031 54.3774 83.5996C54.2038 83.2961 53.9915 83.0431 53.895 83.0431C53.7985 83.0431 53.7116 82.9318 53.673 82.7396C53.6344 82.5777 53.5572 82.4057 53.4897 82.3653C53.345 82.2742 53.0458 81.6975 53.0458 81.5255C53.0458 81.4041 53.0072 81.3535 52.5248 80.7565C52.3318 80.5238 52.1774 80.281 52.1774 80.2102C52.1774 80.1394 52.023 79.9269 51.8397 79.7347C51.6563 79.5525 51.4344 79.1681 51.3379 78.8949C51.2414 78.6116 51.1353 78.389 51.1063 78.389C51.0677 78.389 50.923 78.1361 50.7783 77.8325C50.6432 77.529 50.4792 77.276 50.4309 77.276C50.3827 77.276 50.3441 77.2153 50.3441 77.1445C50.3441 77.0737 50.0932 76.8814 49.7844 76.7196C49.3791 76.5071 49.1572 76.3047 49.0028 76.0316C48.887 75.8191 48.6072 75.5257 48.3853 75.384C48.1633 75.2424 47.6133 74.6657 47.1598 74.1193C45.4712 72.0553 45.1721 71.7113 44.7475 71.3673C44.5063 71.1751 44.0431 70.7198 43.7054 70.3555C43.3677 69.9913 43.0396 69.6878 42.9817 69.6878C42.9141 69.6878 42.3255 69.1313 41.6597 68.4635C40.9939 67.7957 40.1931 67.0774 39.8746 66.8852C39.5562 66.6929 38.9483 66.1971 38.5237 65.8026C38.0992 65.3978 37.5588 64.9527 37.3176 64.811C36.9316 64.5783 35.793 63.6475 35.4553 63.2934C35.3781 63.2225 35.1562 63.0708 34.9439 62.9595C34.7412 62.8482 34.5483 62.7268 34.5193 62.6964C34.4904 62.6661 34.1719 62.4637 33.8053 62.2512C33.4386 62.0388 32.9368 61.6745 32.686 61.4418C32.1746 60.9663 31.4509 60.4705 29.6947 59.4082C29.3473 59.2058 28.8938 58.882 28.6815 58.71C28.4692 58.538 28.1219 58.2851 27.9096 58.1536C27.6973 58.022 27.3499 57.7387 27.1376 57.5263C26.9254 57.3138 26.6552 57.1114 26.5394 57.0811C26.414 57.0406 26.3175 56.99 26.3175 56.9496C26.3175 56.9091 26.1341 56.7371 25.9122 56.5651C25.6806 56.3931 25.4104 56.1705 25.3043 56.0592C25.0052 55.7759 23.085 54.491 22.2262 54.0053C21.8113 53.7625 21.242 53.378 20.9621 53.1352C20.6823 52.9025 20.2867 52.5989 20.0841 52.4573C19.8718 52.3156 19.4086 51.8705 19.0323 51.4759C18.6656 51.0712 18.1156 50.5754 17.8261 50.3629C17.5367 50.1505 17.17 49.8368 17.0156 49.6648C16.8516 49.4928 16.6779 49.3512 16.6103 49.3512C16.5524 49.3512 16.4367 49.2803 16.3691 49.1792C16.2919 49.0881 16.0217 48.8352 15.7516 48.6126C15.491 48.4001 14.8831 47.8436 14.4103 47.3984C13.9375 46.9431 13.4936 46.5283 13.4261 46.4879C13.3489 46.4474 13.291 46.3462 13.291 46.2754C13.291 46.2045 13.1656 46.0224 13.0015 45.8605C12.8375 45.6987 12.712 45.466 12.712 45.3243C12.712 45.1827 12.6156 45.0005 12.4805 44.8892C12.355 44.7881 12.162 44.525 12.0559 44.3125C11.9498 44.1001 11.7278 43.7662 11.5541 43.5739C11.2261 43.1996 10.8787 42.5723 10.8787 42.3396C10.8787 42.2586 10.734 42.0259 10.5506 41.8236C10.3673 41.6212 10.1647 41.2975 10.0971 41.1052C10.0296 40.913 9.92342 40.7511 9.85588 40.7511C9.79798 40.7511 9.69183 40.6196 9.63394 40.4678C9.57604 40.316 9.41201 40.053 9.28657 39.9012C9.15148 39.7393 9.04534 39.5269 9.04534 39.4156C9.04534 39.3144 9.00674 39.2334 8.96815 39.2334C8.9199 39.2334 8.80411 39.0412 8.69797 38.7984C8.60148 38.5657 8.49533 38.3532 8.46638 38.3228C8.42779 38.2925 8.37954 38.1913 8.34095 38.0902C8.30235 37.989 8.17691 37.9181 8.04182 37.9181C7.81988 37.9181 7.80058 37.9586 7.77164 38.3937L7.74269 38.8692L7.40497 38.3127C7.23128 38.0092 7.019 37.5843 6.94181 37.3617C6.87426 37.1391 6.64268 36.5725 6.44005 36.097C6.08303 35.2673 5.87074 34.7108 5.61986 33.9722C5.55232 33.78 5.44618 33.4562 5.37863 33.264C5.10845 32.4849 4.98301 30.9976 4.90582 28.0028C4.83827 25.1901 4.84792 24.8359 5.01196 24.0569C5.1181 23.5814 5.24354 23.0552 5.30144 22.8933C5.34968 22.7213 5.43652 22.3369 5.48477 22.0333C5.6488 21.0418 6.16022 19.6759 6.58479 19.0992C6.64268 19.0183 6.80672 18.6641 6.95145 18.3201C7.18304 17.7333 8.72692 15.5074 9.03569 15.3152C9.11289 15.2646 9.27692 15.1128 9.39271 14.9813C9.5085 14.8599 9.6436 14.7486 9.71114 14.7486C9.76904 14.7486 9.81728 14.698 9.81728 14.6373C9.81728 14.5159 10.4927 13.8481 10.6182 13.838C10.6568 13.838 10.6857 13.7975 10.6857 13.7469C10.6857 13.5952 11.7954 12.5227 12.3357 12.1483C13.0691 11.6424 13.7735 11.3187 15.5103 10.7015C15.7998 10.6003 16.3595 10.398 16.7551 10.2563C17.1507 10.1147 17.7393 9.94268 18.0577 9.89209C18.6656 9.77067 19.2735 9.60879 20.3253 9.26479C20.8078 9.10291 21.0876 9.07255 21.6762 9.12314C22.0815 9.1535 23.1911 9.22432 24.1464 9.27491C25.3429 9.34573 26.1245 9.43679 26.6455 9.57844C27.0605 9.69985 27.5043 9.79091 27.6394 9.79091C27.7648 9.79091 28.0543 9.88197 28.2763 9.98314C28.5078 10.0944 28.807 10.2159 28.9517 10.2462C29.0964 10.2867 29.2412 10.3575 29.2701 10.4081C29.2991 10.4587 29.4535 10.4992 29.6079 10.4992C29.878 10.4992 30.8719 10.8128 31.2193 11.005C31.5859 11.2074 32.271 11.5109 32.3579 11.5109C32.4158 11.5109 32.5798 11.6425 32.7438 11.8043C33.0526 12.118 33.4579 12.3608 33.8728 12.462C34.0272 12.5025 34.3263 12.7048 34.5483 12.9173C34.7702 13.1298 35.1176 13.3827 35.3202 13.4839C35.5132 13.5749 35.6772 13.7166 35.6772 13.7874C35.6772 13.8582 35.8799 14.0808 36.1404 14.2832C36.3913 14.4754 36.6807 14.7789 36.7869 14.9408C36.893 15.1128 37.0764 15.2848 37.1922 15.3253C37.472 15.4265 38.379 16.5495 38.4369 16.8733C38.4851 17.1161 38.7264 17.5006 39.2571 18.2088C39.4018 18.391 39.701 18.907 39.9229 19.3521L40.3378 20.1616L40.3185 21.9828C40.2896 24.0569 40.1834 25.8781 40.0194 26.6875C39.6624 28.5795 39.5176 32.0499 39.7781 32.8087C39.8553 33.0313 39.9229 33.3348 39.9229 33.4765C39.9229 33.6282 40.0097 34.0329 40.1159 34.3769C40.222 34.721 40.3088 35.1864 40.3088 35.3887C40.3088 36.188 40.6659 37.2403 41.2738 38.2217C41.322 38.3026 41.4475 38.5353 41.5536 38.7276C41.6501 38.9198 41.8141 39.1525 41.9106 39.2537C42.2676 39.5775 43.3677 40.144 43.6571 40.144C43.8694 40.144 44.0335 40.2351 44.1878 40.4172C44.4098 40.6904 44.5931 40.8219 45.1335 41.1255C45.5576 41.3579 46.1358 41.2875 46.7912 40.9242L46.9362 39.6836C47.8982 39.6836 47.5091 37.5237 47.3528 36.8042C47.3286 36.697 47.3093 36.617 47.2997 36.5742L47.43 35.4595C47.5168 35.0346 47.5072 30.0972 47.4107 29.1157C47.3431 28.4176 47.1116 27.5475 46.8703 27.1225C46.6773 26.7684 46.3879 25.868 46.3879 25.6251C46.3879 25.4936 46.3493 25.3621 46.301 25.3317C46.2528 25.2912 46.1852 25.0889 46.1466 24.8562C46.108 24.6336 46.0212 24.4211 45.944 24.3908C45.8668 24.3604 45.8089 24.2694 45.8089 24.1884C45.8089 23.9456 45.4133 23.1159 45.0949 22.691C44.8247 22.3268 44.265 21.1126 44.265 20.8799C44.265 20.8293 44.2072 20.7079 44.1396 20.627C44.0721 20.5359 43.937 20.202 43.8405 19.8884C43.6668 19.3319 43.6668 19.2813 43.8115 18.7856C43.908 18.5023 43.9756 18.1785 43.9756 18.0672C43.9756 17.9559 44.1107 17.6625 44.265 17.4095C44.4291 17.1667 44.5545 16.8935 44.5545 16.8126C44.5545 16.6406 44.7668 16.2561 45.1142 15.8109C45.2396 15.6491 45.4615 15.2646 45.587 14.9611C45.7221 14.6474 45.8861 14.354 45.9537 14.2933C46.0212 14.2427 46.1756 14.0201 46.3107 13.8178C46.4361 13.6053 46.9572 12.9679 47.4589 12.3912C47.9607 11.8145 48.694 10.9342 49.0896 10.4283C49.4853 9.93256 50.18 9.2142 50.6239 8.81961C51.0677 8.43513 51.5213 8.04055 51.6371 7.92925C52.4958 7.14007 54.9853 5.93606 56.2783 5.68312C56.481 5.64265 56.8573 5.52124 57.0985 5.40994C57.3397 5.28853 57.9284 5.14688 58.4012 5.07605C58.8836 5.00523 59.617 4.89394 60.0415 4.82311C60.524 4.74217 61.7398 4.69158 63.274 4.68147C65.9276 4.68147 66.1881 4.72194 67.1627 5.28853C67.3846 5.42006 67.8767 5.63253 68.2434 5.75395C71.5338 6.82642 71.4566 6.79607 72.5855 7.45372C73.454 7.96972 74.7663 9.03208 75.7698 10.0337C76.1461 10.4081 76.5514 10.8027 76.6768 10.914C76.9084 11.1062 77.854 12.4316 78.3461 13.2512C78.4909 13.494 78.6549 13.7571 78.7031 13.838C78.9347 14.2225 79.4847 15.5074 79.4847 15.6693C79.4847 15.7806 79.5909 16.0942 79.726 16.3877C79.8611 16.671 79.9672 16.9644 79.9672 17.0251C79.9672 17.0858 80.1119 17.359 80.2953 17.6524C80.469 17.9357 80.6427 18.2999 80.6716 18.4517C80.7005 18.6136 80.7681 18.9474 80.8163 19.2004C80.8646 19.4533 80.9804 19.8783 81.0769 20.1616C81.2505 20.6776 81.3663 22.4482 81.4725 26.1715C81.5207 27.6891 81.5014 27.8814 81.3181 28.3164C81.212 28.5795 81.1251 28.9539 81.1251 29.136C81.1251 29.3181 81.0286 29.8139 80.9225 30.2287C80.8163 30.6435 80.6909 31.1494 80.6523 31.3416C80.6137 31.5339 80.5075 31.8374 80.4207 32.0195C80.3339 32.2016 80.2567 32.3939 80.2567 32.4546C80.2567 32.5254 80.1891 32.7379 80.1023 32.9402C80.0155 33.1527 79.89 33.4664 79.8128 33.6485C79.7356 33.8306 79.6777 34.0835 79.6777 34.2049C79.6777 34.3365 79.6391 34.4781 79.5909 34.5287C79.4365 34.7007 78.8093 36.4814 78.8093 36.7546C78.8093 36.8963 78.761 37.0076 78.7128 37.0076C78.6549 37.0076 78.5584 37.129 78.5005 37.2807C78.433 37.4426 78.3365 37.6349 78.2689 37.7158C78.211 37.7967 78.0663 38.1407 77.9601 38.4746C77.7189 39.193 77.468 39.7191 77.2365 39.9923C76.8408 40.4577 76.3777 41.1052 76.233 41.3986C76.1558 41.5706 75.8566 42.0259 75.5864 42.4205C75.1233 43.0782 75.0943 43.1591 75.0943 43.7055C75.0943 44.1203 75.1426 44.3328 75.2391 44.4036C75.4321 44.5351 75.9435 44.4339 76.368 44.1608C76.7347 43.9382 77.6514 43.0074 77.6514 42.8556C77.6514 42.8151 77.8347 42.5521 78.0663 42.2789C78.6935 41.4998 78.8479 41.2671 79.2725 40.4476C79.4944 40.0327 79.8225 39.5167 80.0058 39.3043C80.1988 39.1019 80.3918 38.7377 80.4593 38.4949C80.5172 38.2621 80.7102 37.817 80.8839 37.5134C81.2988 36.7951 82.2541 34.7108 82.3313 34.3466C82.3698 34.1948 82.4567 34.0734 82.5339 34.0734C82.6111 34.0734 82.669 34.0026 82.669 33.9216C82.669 33.8407 82.7558 33.7699 82.862 33.7699C82.9681 33.7699 83.0549 33.7193 83.0549 33.6687C83.0549 33.608 83.2093 33.5675 83.3927 33.5675C83.576 33.5675 83.7304 33.5169 83.7304 33.4664C83.7304 33.4056 83.8269 33.3652 83.9523 33.3652C84.2322 33.3652 84.2997 33.2235 84.705 31.8981C84.8787 31.3416 85.0523 30.8661 85.0813 30.8358C85.1585 30.775 85.255 30.2995 85.3418 29.5407L85.3901 29.0146H84.7918C84.2611 29.0146 84.2032 28.9943 84.2611 28.8324C84.3865 28.5188 84.483 27.8611 84.5506 26.7887C84.5892 26.2018 84.676 25.5037 84.7436 25.2407C84.8208 24.9776 84.9076 24.1075 84.9462 23.3183C85.0137 21.8816 85.0813 21.6286 85.3997 21.6286C85.4866 21.6286 85.612 21.5983 85.6989 21.5679C85.9401 21.4668 85.9015 20.283 85.6216 19.3319C85.4962 18.8968 85.3322 18.1481 85.2646 17.6524C85.1971 17.1667 85.1102 16.7721 85.062 16.7721C85.0234 16.7721 84.9848 16.7114 84.9848 16.6406C84.9848 16.5799 84.8111 16.155 84.5988 15.7098C84.3865 15.2646 84.2129 14.8498 84.2129 14.7789C84.2129 14.7081 84.1743 14.6474 84.1164 14.6474C83.9041 14.6474 83.3734 13.9493 83.1707 13.4029C82.9488 12.7858 82.2541 11.6121 81.733 10.9646C81.5593 10.742 81.4146 10.5194 81.4146 10.4789C81.4146 10.1349 79.3207 7.59537 78.8093 7.31207C78.6742 7.24125 78.2303 6.82642 77.8251 6.38124C77.4102 5.94618 76.8698 5.48077 76.6189 5.34924C76.3584 5.20759 76.0689 5.02547 75.9628 4.93441C75.8566 4.84335 75.3838 4.51959 74.9014 4.21605C74.4285 3.92264 73.7724 3.48758 73.454 3.26499C72.5566 2.61746 68.5329 1.01885 67.182 0.765912C65.8021 0.512969 62.0968 0.35109 60.6398 0.492738ZM43.6282 27.1934C43.5992 27.0011 43.3966 26.4649 43.1843 25.9995C42.7887 25.1496 42.7212 25.0484 42.7212 25.3317C42.7212 25.4228 42.5957 25.6858 42.4413 25.9287C42.0457 26.5458 42.0168 26.6774 41.9878 28.1546L41.9801 28.4455C41.9592 29.2274 41.9253 30.503 41.8913 31.4732C41.8431 33.1628 41.8624 33.5473 41.9878 33.8812C42.0747 34.1038 42.1422 34.377 42.1422 34.4984C42.1422 34.6198 42.2097 34.7918 42.2869 34.8828C42.451 35.0751 42.7212 36.0666 42.7212 36.4916C42.7212 37.0278 43.4545 37.7057 43.8115 37.5033C43.8984 37.4426 43.9756 37.3111 43.9756 37.2099C43.9756 37.0986 44.0817 36.9367 44.2168 36.8457L44.4677 36.6737L44.4194 33.8812C44.3808 31.0482 44.2747 29.5205 44.0914 29.1562C44.0045 28.9741 43.7826 28.023 43.6282 27.1934ZM41.0036 33.6889C41.0711 33.6181 41.1194 32.6569 41.1387 30.9167C41.158 29.0247 41.129 28.0837 41.0422 27.6891L40.9168 27.1428L40.801 27.5475C40.6273 28.1647 40.5501 31.5743 40.6852 32.5254C40.8685 33.7699 40.8878 33.8104 41.0036 33.6889Z" stroke="#E93737" fill="#E93737"/>
<path d="M63.5732 93.9905C63.2933 93.6768 63.1196 93.5656 62.917 93.5656C62.5793 93.5656 62.2126 93.2013 62.2126 92.8776C62.2126 92.655 62.7337 91.5926 62.8977 91.4813C62.9459 91.4509 62.9845 91.3599 62.9845 91.2688C62.9845 91.1879 63.2644 90.682 63.6021 90.1356C64.1039 89.3363 64.6828 88.3651 65.3486 87.2116C65.474 86.989 65.7153 86.6046 66.2363 85.7648C66.4679 85.3904 66.6513 85.0566 66.6513 85.0161C66.6513 84.9655 66.7478 84.7935 66.8732 84.6215C66.9986 84.4495 67.2013 84.1156 67.3267 83.8728C67.4521 83.6401 67.5872 83.4479 67.6258 83.4479C67.6644 83.4479 67.7609 83.2758 67.8478 83.0634C68.0118 82.6789 68.253 82.2641 68.9188 81.2523C69.1311 80.9285 69.3627 80.5542 69.4302 80.4227C69.6811 79.9269 70.2794 79.1782 70.5302 79.0365C70.7425 78.9252 71.0224 78.905 71.7364 78.9556C72.5276 79.0062 72.8075 79.077 73.4154 79.3603C73.8206 79.5525 74.2548 79.7043 74.3899 79.7043C74.5154 79.7043 74.6601 79.7448 74.718 79.8055C74.8049 79.8965 76.3005 80.0989 76.9084 80.109C77.0531 80.109 77.2461 80.0179 77.3329 79.9066C77.468 79.7448 77.6224 79.7043 78.1339 79.7043C78.5005 79.7043 78.8382 79.6537 78.9251 79.5728C79.0988 79.4311 79.4847 78.7128 79.4847 78.5205C79.4847 78.4598 79.5812 78.3283 79.697 78.2473C79.8707 78.1158 80.2277 78.0855 81.54 78.0855H83.1611L83.769 78.5408C84.4251 79.0264 84.8497 79.1175 85.1199 78.8342C85.3515 78.5914 85.3032 78.2979 84.8883 77.3873C84.676 76.932 84.5023 76.5273 84.5023 76.5071C84.5023 76.4869 84.6085 76.5375 84.7436 76.6285C85.062 76.8511 85.448 76.7398 85.5251 76.416C85.583 76.1631 85.8436 75.9405 86.2392 75.809C86.3743 75.7685 86.5383 75.6876 86.6155 75.6269C86.8954 75.384 87.4839 75.2323 88.362 75.1817C88.8638 75.1513 89.3366 75.0805 89.4042 75.0299C89.4717 74.9692 89.5199 74.6859 89.5199 74.3217C89.5199 73.9878 89.5682 73.6337 89.6261 73.5123C89.7419 73.2796 89.5875 72.7737 89.3752 72.6826C89.2015 72.6219 89.134 71.9137 89.298 71.9137C89.3752 71.9137 89.4717 72.0249 89.5199 72.1666C89.7322 72.7433 91.0831 73.2391 91.6331 72.9355C91.9708 72.7433 92.2121 72.0553 92.2603 71.1042C92.2893 70.6287 92.3375 70.0216 92.3761 69.7383C92.4533 69.1414 92.2796 68.0285 92.0191 67.472C91.9226 67.2595 91.7103 66.9357 91.5463 66.7739C91.3919 66.6019 91.2568 66.4197 91.2568 66.359C91.2568 66.1971 91.9708 66.2275 92.3375 66.3894C92.5112 66.4703 92.9068 66.612 93.2059 66.703C93.5726 66.8143 93.7752 66.9357 93.8138 67.0673C93.8524 67.1684 94.0261 67.3809 94.2095 67.5226C94.4989 67.7553 94.5761 67.7755 94.7884 67.6743C95.0972 67.5327 95.1165 67.5327 95.1165 67.7148C95.1165 67.7957 95.1647 67.8666 95.213 67.8666C95.2709 67.8666 95.3095 67.9273 95.3095 68.0082C95.3095 68.0892 95.4253 68.2915 95.5603 68.4635C95.8595 68.8379 96.3612 68.8885 96.6507 68.5849C96.7954 68.4332 96.9209 68.4028 97.22 68.4433C97.5481 68.4939 97.6253 68.4635 97.799 68.2207C98.0692 67.8666 98.0691 67.3708 97.8183 66.875C97.5963 66.4501 97.6928 66.3388 98.0788 66.6019C98.4455 66.8548 99.4587 66.9256 99.8446 66.7132C100.018 66.6221 100.317 66.5513 100.51 66.5513C100.703 66.5513 100.983 66.4804 101.138 66.3995C101.282 66.3186 101.466 66.2477 101.533 66.2477C101.61 66.2477 101.784 66.1364 101.938 66.0049C102.093 65.8633 102.46 65.6407 102.759 65.5091C103.048 65.3675 103.328 65.2056 103.367 65.1348C103.415 65.0538 103.482 65.064 103.617 65.1955C103.83 65.3978 104.505 65.4282 104.717 65.236C104.795 65.1651 104.862 65.0134 104.862 64.9021C104.862 64.7402 104.891 64.72 104.978 64.811C105.065 64.9021 105.046 65.0235 104.91 65.3473C104.746 65.7216 104.746 65.7924 104.872 66.0251C105.19 66.6322 105.924 66.703 106.184 66.1567C106.281 65.9341 106.628 65.6508 106.811 65.6407C106.85 65.6407 106.869 65.8329 106.869 66.0656C106.869 66.4096 106.917 66.5411 107.12 66.7233C107.419 66.9964 107.66 67.0167 108.037 66.8143C108.625 66.4906 108.732 65.9644 108.49 64.5682C108.413 64.0927 108.288 63.7385 108.114 63.4957C107.969 63.2934 107.757 62.8482 107.641 62.4941C107.535 62.1399 107.381 61.7555 107.303 61.6442C107.236 61.5329 107.178 61.371 107.178 61.2799C107.178 61.1889 107.11 61.0573 107.033 60.9865C106.956 60.9157 106.889 60.7842 106.889 60.6931C106.889 60.4604 106.532 59.742 106.339 59.5903C106.252 59.5296 106.039 59.4689 105.875 59.4689C105.605 59.4689 105.538 59.4082 105.316 58.9225C105.171 58.619 105.007 58.3357 104.959 58.3053C104.901 58.275 104.862 58.1536 104.862 58.0524C104.862 57.85 104.177 57.1823 103.82 57.0305C103.704 56.9799 103.569 56.8585 103.54 56.7674C103.502 56.6663 103.424 56.5347 103.376 56.4841C103.106 56.2211 102.373 55.6545 102.131 55.523C101.987 55.442 101.726 55.2295 101.553 55.0474C101.379 54.8653 101.205 54.7135 101.157 54.7135C101.003 54.7135 100.424 54.1166 100.52 54.0559C100.617 53.9952 101.408 54.3999 101.466 54.5314C101.485 54.582 101.562 54.6124 101.639 54.6124C101.717 54.6124 101.938 54.7034 102.131 54.8147C102.334 54.926 102.575 55.0171 102.672 55.0171C102.768 55.0171 103.135 55.179 103.502 55.3712C103.859 55.5634 104.225 55.7253 104.312 55.7253C104.524 55.7253 105.779 56.3121 106.194 56.6056C106.377 56.727 106.609 56.8585 106.725 56.899C106.84 56.9394 107.091 57.1013 107.284 57.2531C107.757 57.6477 108.732 58.1435 109.233 58.2446C109.455 58.2952 109.947 58.4571 110.314 58.6089C111.25 58.9832 111.983 58.9933 112.639 58.6392C113.025 58.4267 113.286 58.366 113.894 58.3458C114.347 58.3256 114.801 58.3762 115.004 58.4571C115.293 58.5684 115.418 58.5583 115.824 58.4267C116.084 58.3458 116.412 58.2446 116.567 58.2143C116.711 58.1738 117.078 58.0322 117.387 57.8905C118.4 57.415 118.545 57.3543 118.911 57.2834C119.124 57.2531 119.548 57.0507 119.867 56.8484C120.841 56.2312 121.121 56.13 121.652 56.2008C122.192 56.2616 123.62 56.0187 124.46 55.7051C124.749 55.5938 125.183 55.3408 125.405 55.1385C125.811 54.7743 125.82 54.7439 125.83 54.1267C125.83 53.7524 125.878 53.4893 125.936 53.4893C125.994 53.4792 126.284 53.459 126.573 53.4488C126.862 53.4286 127.422 53.3173 127.808 53.1959C128.484 52.9834 128.532 52.9429 129.381 51.9716C129.902 51.3848 130.346 50.97 130.452 50.97C130.635 50.97 131.494 50.2112 131.494 50.0392C131.494 49.9886 131.581 49.7356 131.697 49.4827C131.803 49.2297 131.928 48.7947 131.977 48.5114C132.044 48.0561 131.957 46.7206 131.822 46.1236C131.764 45.8403 131.34 45.2333 130.809 44.6768C130.481 44.3429 130.452 44.2518 130.413 43.6144C130.375 43.0276 130.317 42.8455 130.008 42.3699C129.815 42.0664 129.584 41.5909 129.487 41.3177C129.371 40.9838 129.198 40.7106 128.908 40.4678C128.677 40.2756 128.387 39.9215 128.252 39.6989C128.127 39.4662 127.683 38.9502 127.277 38.5353C126.631 37.8979 126.409 37.7461 125.656 37.4426C125.155 37.2403 124.498 37.048 124.112 37.0076C123.736 36.9671 123.196 36.8153 122.897 36.6737C121.999 36.2487 120.6 36.0059 118.921 36.0059C118.197 35.9958 117.802 36.0362 117.609 36.1374C117.464 36.2184 117.29 36.2487 117.223 36.2082C117.097 36.1172 116.605 36.2184 115.737 36.5219C115.197 36.704 115.177 36.704 114.917 36.5118C114.511 36.2083 113.952 36.1678 113.354 36.4005C113.054 36.5118 112.582 36.6028 112.282 36.6028C111.983 36.6028 111.568 36.6737 111.375 36.7647C111.144 36.8659 110.797 36.9165 110.42 36.8963C110.092 36.876 109.552 36.876 109.214 36.8861C108.654 36.9064 108.577 36.9367 108.297 37.2605C108.124 37.4527 107.931 37.6146 107.873 37.6146C107.805 37.6146 107.525 37.7461 107.246 37.9181C106.84 38.161 106.609 38.2217 106.184 38.2217C105.885 38.2217 105.47 38.2824 105.277 38.3633C104.795 38.5454 104.052 38.7073 102.981 38.8692C102.508 38.94 101.784 39.0716 101.388 39.1525C100.433 39.3549 99.9893 39.3751 98.9279 39.2739L98.2428 39.2132L97.8665 39.6685C97.6542 39.9214 97.4034 40.2452 97.2972 40.397C97.2007 40.5487 96.9788 40.7309 96.8148 40.8118C96.6507 40.8928 96.3419 41.0749 96.1297 41.2064C95.5314 41.601 95.0875 41.8337 94.8174 41.8944C94.6823 41.9349 94.4603 42.0765 94.3156 42.2081C94.1709 42.3497 93.92 42.5419 93.7463 42.6431C93.5726 42.7342 93.2349 43.0073 92.9937 43.2401C92.627 43.5942 92.4726 43.6751 92.0384 43.7156C91.5173 43.7763 91.2086 43.9685 91.1121 44.2923C91.0831 44.3935 90.8998 44.5554 90.6971 44.6565C90.2629 44.869 89.8094 45.213 89.8094 45.3243C89.8094 45.4356 89.134 46.0629 89.0182 46.0629C88.9699 46.0629 88.8831 45.9516 88.8155 45.8201C88.584 45.3344 87.5225 45.0107 87.2234 45.3243C87.0401 45.5165 87.0883 45.982 87.3489 46.5182C87.6094 47.0645 87.6576 47.6817 87.4646 47.9853C87.3971 48.0966 87.2813 48.39 87.2041 48.6227L87.069 49.0679L86.8471 48.5923C86.6059 48.1067 86.1524 47.7323 85.7857 47.7323C85.6313 47.7323 85.5059 47.6008 85.3225 47.2467C85.0234 46.6599 84.6664 46.417 84.1164 46.417C83.7883 46.417 83.6629 46.4777 83.4313 46.7307C83.2769 46.9027 83.1032 47.2366 83.0357 47.4591C82.9778 47.6918 82.8234 48.0257 82.6979 48.2079C82.5725 48.3799 82.476 48.653 82.476 48.8149C82.476 49.1994 82.3892 49.3208 81.9839 49.4928C81.6558 49.6345 80.8356 50.4641 80.8356 50.6563C80.8356 50.7069 80.7391 50.7879 80.6234 50.8283C80.5076 50.8587 80.0347 51.2938 79.5619 51.7895C78.8575 52.5281 78.6452 52.7001 78.3365 52.7507C77.854 52.8316 77.5645 53.1655 77.2172 54.0255C77.0628 54.4201 76.8795 54.7338 76.7733 54.7641C76.6768 54.7945 76.4645 54.9867 76.3005 55.1891C76.011 55.5331 76.0014 55.5736 76.0207 56.3526C76.0496 57.0912 76.0689 57.1721 76.2715 57.2531C76.397 57.3037 76.4935 57.3947 76.4935 57.4757C76.4935 57.6274 75.9628 58.2547 75.8373 58.2547C75.7891 58.2547 75.7215 58.0929 75.6926 57.8905C75.654 57.6882 75.5382 57.415 75.4224 57.2834C75.0943 56.9091 74.7084 56.9698 73.9654 57.4959C73.6084 57.7489 73.2706 57.9512 73.2224 57.9512C73.039 57.9512 72.5373 58.4773 72.5373 58.6696C72.5373 58.7707 72.4215 58.9225 72.2768 59.0035C72.1224 59.0844 71.8618 59.4082 71.6785 59.742C71.4952 60.0658 71.2057 60.511 71.0417 60.7336C70.868 60.9562 70.6653 61.2698 70.5785 61.4418C70.3855 61.8263 69.6908 62.5042 69.4881 62.5042C69.4013 62.5042 69.1504 62.6357 68.9285 62.7875C68.61 63.0101 68.446 63.0708 68.1565 63.0303C67.51 62.9494 67.0855 63.6576 67.4714 64.1837C67.6548 64.4367 67.6548 64.6694 67.4714 64.8313C67.3653 64.9223 67.3557 65.0032 67.4328 65.1449C67.4811 65.2562 67.5583 65.3169 67.5969 65.2967C67.6451 65.2663 67.732 65.2866 67.8092 65.3371C67.9249 65.408 67.925 65.4586 67.8285 65.5597C67.7706 65.6204 67.7127 65.843 67.7127 66.0353C67.7127 66.2275 67.6451 66.4703 67.5583 66.5614C67.4039 66.7435 67.3942 66.7435 67.2302 66.5209C67.1337 66.3894 67.0469 66.0454 67.0179 65.7115C66.9697 65.0741 66.8635 64.9324 66.4486 64.9324C65.9951 64.9324 65.8311 65.155 65.8311 65.8127C65.8311 66.1364 65.8697 66.5209 65.9179 66.6727C65.9951 66.9357 65.9758 66.956 65.7056 66.956C65.474 66.956 65.3486 67.0369 65.146 67.3101C64.8951 67.6541 64.8951 67.6946 65.0013 68.2409C65.0591 68.5546 65.1074 69.2122 65.1074 69.708C65.1074 70.4365 65.0688 70.6793 64.9047 70.9828C64.7021 71.337 64.7021 71.3774 64.8565 71.7113C65.0881 72.2172 65.503 72.9254 65.8118 73.3402C65.9565 73.5426 66.0723 73.7854 66.0723 73.8967C66.0723 73.9979 66.2267 74.3217 66.4197 74.6151C66.7478 75.1108 66.7574 75.1716 66.6513 75.4548C66.5837 75.6269 66.5548 75.9 66.5934 76.1125C66.6416 76.3654 66.6127 76.5374 66.5065 76.6892C66.4293 76.8207 66.3618 77.0737 66.3618 77.276C66.3618 77.6302 65.86 78.6925 65.696 78.6925C65.6477 78.6925 65.5512 78.8645 65.4837 79.0669C65.4258 79.2793 65.1267 79.8358 64.8275 80.3114C64.5381 80.7869 64.1907 81.3737 64.0749 81.6267C63.9591 81.8796 63.6214 82.4361 63.3319 82.861C62.8012 83.6401 62.6372 83.9335 62.367 84.5406C62.2801 84.7328 62.1065 85.0161 61.9714 85.1881C61.8363 85.35 61.7301 85.5523 61.7301 85.6333C61.7301 85.785 61.267 86.6147 60.8714 87.1914C60.7363 87.3836 60.5337 87.7074 60.4275 87.8996C60.331 88.0919 60.0994 88.4561 59.9161 88.7091C59.7328 88.962 59.5301 89.2756 59.4722 89.4173C59.4143 89.5589 59.2985 89.731 59.2021 89.8018C59.1152 89.8625 59.0187 90.0547 58.9801 90.2065C58.8836 90.7124 58.3819 91.1069 57.7643 91.1778L57.224 91.2486L58.5353 91.8445C58.5712 91.7947 58.5983 91.7212 58.6328 91.6128C58.7003 91.4206 58.874 91.1373 59.0284 90.9855C59.1924 90.8237 59.3178 90.6415 59.3178 90.5707C59.3178 90.4999 59.4915 90.1761 59.7038 89.8524C60.0888 89.2813 60.5652 88.5185 61.4176 87.1537L61.4889 87.0396C61.7591 86.6046 62.0003 86.21 62.0486 86.1392C62.0872 86.0785 62.203 85.8255 62.3091 85.5726L62.3246 85.5372C62.5306 85.0673 62.5318 85.0647 63.3512 83.7413C63.6793 83.1949 63.9495 82.7092 63.9495 82.6587C63.9495 82.6081 64.017 82.5069 64.0942 82.4361C64.1714 82.3652 64.2389 82.2337 64.2389 82.1325C64.2389 82.0415 64.3258 81.8796 64.4319 81.7784C64.5381 81.6772 64.7793 81.313 64.9626 80.9589C65.1556 80.6048 65.4065 80.19 65.532 80.0382C65.6574 79.8864 65.7925 79.6436 65.8311 79.5019C65.8697 79.3603 66.0916 78.9455 66.3232 78.5812C66.6416 78.0855 66.7478 77.8022 66.7478 77.5189C66.7478 77.2963 66.8153 77.0332 66.8925 76.932C66.9986 76.7904 67.0372 76.4565 67.0372 75.7584C67.0372 74.8174 67.0276 74.7567 66.6416 73.9878C66.4293 73.5527 66.1495 73.057 66.0144 72.8951C65.889 72.7332 65.7828 72.5511 65.7828 72.4802C65.7828 72.4094 65.6574 72.1868 65.4933 72.0047C65.1749 71.6304 65.1267 71.2965 65.3486 71.1042C65.4644 71.0031 65.4933 70.6591 65.4933 69.2224C65.4933 68.2612 65.532 67.4517 65.5802 67.4214C65.6188 67.391 65.7635 67.4821 65.8793 67.6136C66.2556 68.0386 66.3618 67.9475 66.3618 67.2089C66.3618 66.4703 66.4872 66.3084 66.8346 66.6221C66.989 66.7536 67.0372 66.9155 67.0372 67.3C67.0372 67.7856 67.2206 68.1701 67.4521 68.1701C67.7223 68.1701 67.9057 67.8261 67.9057 67.3202C67.9057 67.0369 67.9636 66.6929 68.0311 66.5513C68.2723 66.0656 68.3013 65.408 68.0986 65.0842C67.9056 64.7807 67.8381 64.0825 67.9829 63.8498C68.0215 63.7891 68.2241 63.7183 68.4364 63.6981C68.7548 63.6778 68.832 63.6273 68.8513 63.4451C68.8706 63.2934 68.9767 63.1922 69.1408 63.1416C69.2855 63.1113 69.546 63 69.7294 62.8988C70.0864 62.6964 71.0899 61.6341 71.0899 61.4418C71.0899 61.3811 71.2057 61.2192 71.3408 61.0776C71.4759 60.9461 71.7653 60.5515 71.9776 60.2075L72.3636 59.57L72.6048 59.7724C72.8268 59.9545 73.1162 59.9545 73.1162 59.7724C73.1162 59.7319 73.0487 59.5296 72.9619 59.3171C72.8268 58.9832 72.8268 58.9225 72.9715 58.6999C73.0487 58.5684 73.3671 58.3357 73.6759 58.1839C73.975 58.0322 74.3514 57.7994 74.4961 57.678C74.6505 57.5465 74.8242 57.4453 74.8917 57.4453C75.1329 57.4453 75.3259 57.8096 75.3549 58.3053C75.3838 58.7606 75.4128 58.8112 75.625 58.8416C75.7987 58.8618 75.9531 58.7809 76.1557 58.5583C76.3101 58.3964 76.4838 58.2547 76.561 58.2547C76.7347 58.2547 76.8795 57.9209 76.8795 57.5364C76.8795 57.3037 76.7926 57.1013 76.5996 56.8889C76.0786 56.3223 76.1461 55.9884 77.0049 55.0373C77.5066 54.491 77.7382 54.1571 77.7865 53.9142C77.8733 53.4387 78.0952 53.206 78.5295 53.1352C78.8189 53.0846 79.0409 52.9126 79.6488 52.2752C80.0637 51.8401 80.5847 51.3747 80.8067 51.2533C81.0961 51.0914 81.2892 50.889 81.4435 50.5653C81.5786 50.282 81.7813 50.0493 81.9839 49.938C82.3216 49.766 82.7655 49.3613 82.7655 49.25C82.7655 49.169 83.1032 48.3799 83.2479 48.137C83.2962 48.0561 83.4216 47.7728 83.5374 47.4996C83.933 46.5991 84.7436 46.7711 85.1392 47.8335C85.1681 47.9144 85.255 48.137 85.3322 48.3191C85.4094 48.5114 85.4673 48.9768 85.4673 49.4119C85.4673 49.857 85.5252 50.3123 85.612 50.5349C85.805 51.0003 85.7953 51.6681 85.6023 52.0728C85.3997 52.4978 85.5637 53.4185 85.969 54.1571C86.0269 54.2684 86.1041 54.491 86.1427 54.663C86.1813 54.9058 86.2489 54.9665 86.4322 54.9665C86.6725 54.9665 86.6734 54.9464 86.7211 53.9466L86.7217 53.9345C86.7506 53.3072 86.8181 52.8519 86.8953 52.7709C86.9725 52.69 87.0111 52.3157 87.0111 51.6681C87.0111 50.9194 87.0497 50.6563 87.1559 50.5653C87.2427 50.4843 87.3006 50.2618 87.3006 49.9987C87.3006 49.7457 87.3875 49.3916 87.4936 49.1792C87.5997 48.9667 87.6866 48.7239 87.6866 48.6429C87.6866 48.562 87.7541 48.4001 87.8313 48.2989C88.0339 48.0156 88.0243 46.7408 87.8217 46.4373C87.6287 46.1337 87.6769 45.7695 87.9278 45.729C88.1497 45.6987 88.5164 46.0629 88.5743 46.3664C88.5936 46.5182 88.6901 46.5789 88.9506 46.5991C89.2594 46.6295 89.3463 46.5789 89.7033 46.154C89.9156 45.8909 90.0989 45.6481 90.0989 45.5975C90.0989 45.557 90.3787 45.385 90.7164 45.213C91.3726 44.869 91.6042 44.6667 91.6621 44.3429C91.691 44.181 91.7779 44.1304 92.1638 44.1102C92.5305 44.09 92.7331 43.9989 93.0323 43.7561C93.8138 43.0984 95.2226 42.1878 95.5411 42.1271C95.7147 42.0866 95.9849 41.945 96.12 41.8135C96.2647 41.6718 96.6025 41.4492 96.8823 41.3076C97.4323 41.0344 97.8183 40.7106 97.8183 40.5184C97.8183 40.4476 97.9244 40.2655 98.0595 40.1137C98.3104 39.8405 98.3104 39.8405 99.6806 39.8405C100.732 39.8304 101.099 39.8 101.234 39.6887C101.34 39.6078 101.601 39.537 101.813 39.537C102.035 39.537 102.382 39.4662 102.595 39.3852C102.807 39.3043 103.26 39.2436 103.608 39.2334C104.003 39.2334 104.303 39.1727 104.418 39.0817C104.524 39.0007 104.804 38.9299 105.046 38.9299C105.287 38.9198 105.596 38.8591 105.731 38.7781C105.866 38.6972 106.203 38.6365 106.474 38.6264C106.869 38.6264 107.12 38.5454 107.603 38.2723C107.95 38.08 108.278 37.9181 108.336 37.9181C108.394 37.9181 108.558 37.7765 108.693 37.6146L108.934 37.3111H110.256C111.269 37.3111 111.626 37.2807 111.771 37.1593C111.887 37.0683 112.196 37.0177 112.659 37.0076C113.103 37.0076 113.469 36.9469 113.653 36.8457C114.019 36.6534 114.647 36.6939 114.685 36.9165C114.695 36.9974 114.579 37.2504 114.415 37.4628C114.174 37.7866 114.125 37.9283 114.125 38.4139C114.125 38.768 114.068 39.0716 113.981 39.193C113.817 39.4257 113.778 41.4593 113.942 41.6313C113.99 41.6819 114.068 41.9551 114.106 42.2283C114.154 42.5925 114.222 42.7342 114.357 42.7544C114.454 42.7746 114.569 42.7544 114.627 42.6937C114.675 42.6431 114.714 41.6516 114.714 40.4273C114.714 38.7073 114.743 38.2014 114.849 38.0598C114.926 37.9485 114.994 37.7967 114.994 37.7057C114.994 37.4123 115.38 37.0076 115.65 37.0076C115.795 37.0076 116.036 36.9367 116.19 36.8558C116.335 36.7748 116.731 36.6939 117.059 36.6939C117.377 36.6838 117.783 36.6534 117.937 36.613C118.265 36.532 120.504 36.5624 121.169 36.6534C121.604 36.7141 122.221 36.9165 122.762 37.1694C122.926 37.2403 123.398 37.3718 123.823 37.4628C124.248 37.5539 124.749 37.6854 124.933 37.7664C125.116 37.8372 125.434 37.9283 125.627 37.9687C126.139 38.0497 127.615 39.4763 127.837 40.1036C127.934 40.3565 128.117 40.7207 128.262 40.913C128.628 41.4088 128.918 42.1474 128.85 42.4104C128.763 42.7949 128.937 43.1996 129.42 43.7257C129.67 43.9888 129.998 44.4238 130.153 44.6768C130.423 45.122 130.433 45.1928 130.433 46.3057C130.433 47.3074 130.404 47.5199 130.24 47.7829C130.134 47.9448 130.047 48.1674 130.047 48.2584C130.047 48.5417 129.342 49.25 129.053 49.25C128.879 49.25 128.734 49.3512 128.59 49.5737C128.464 49.7559 128.04 50.2618 127.644 50.6867C127.027 51.3646 126.882 51.4759 126.602 51.4759C126.419 51.4759 126.129 51.5467 125.936 51.6276C125.434 51.8502 123.871 51.8603 123.572 51.6479C123.389 51.5062 123.109 51.4759 122.202 51.4759C121.063 51.4759 121.044 51.4759 120.716 51.1723C120.542 51.0003 120.33 50.8688 120.253 50.8688C120.176 50.8688 119.394 50.1201 118.516 49.1994C116.876 47.4895 116.538 47.2467 116.538 47.8032C116.538 48.0257 116.847 48.4102 118.149 49.7761C119.037 50.7171 119.838 51.4759 119.915 51.4759C120.002 51.4759 120.118 51.5265 120.176 51.5872C120.243 51.658 120.523 51.7996 120.803 51.9109C121.198 52.0728 121.642 52.1335 122.762 52.174L124.209 52.2347L124.238 52.7305C124.267 53.1554 124.228 53.2667 124.006 53.5095C123.862 53.6714 123.688 53.8029 123.62 53.8029C123.562 53.8029 123.379 53.8738 123.234 53.9547C123.08 54.0357 122.829 54.1065 122.665 54.1065C122.511 54.1166 122.269 54.1773 122.134 54.2582C121.961 54.3594 121.555 54.3999 120.716 54.41C119.471 54.41 119.191 54.491 118.564 55.0677C118.188 55.4117 117.532 55.7253 117.184 55.7253C117.011 55.7253 116.789 55.7961 116.692 55.8771C116.586 55.958 116.412 56.0288 116.297 56.0288C116.181 56.0288 116.046 56.0794 115.988 56.1401C115.92 56.211 115.64 56.3526 115.361 56.4639C114.917 56.6359 114.627 56.6561 113.247 56.646C111.646 56.6258 111.646 56.6258 111.057 56.9394C110.449 57.2531 110.102 57.3138 109.803 57.1519C109.561 57.0103 108.732 56.7371 108.288 56.6359C108.075 56.5954 107.747 56.4943 107.564 56.4336C107.381 56.3627 107.188 56.2818 107.13 56.2717C107.004 56.2211 106.725 56.0288 106.31 55.7152C106.126 55.5736 105.451 55.1891 104.814 54.8552C104.177 54.5314 103.646 54.2279 103.627 54.1874C103.608 54.1368 103.473 54.1065 103.338 54.1065C103.116 54.1065 102.286 53.7321 101.369 53.2364C101.234 53.1554 101.012 53.0947 100.877 53.0947C100.752 53.0947 100.588 53.0239 100.52 52.943C100.453 52.862 100.327 52.7912 100.24 52.7912C100.153 52.7912 99.8929 52.6698 99.6516 52.5281C99.3911 52.3662 99.1499 52.2954 99.0148 52.3258C98.8893 52.3662 98.7639 52.346 98.735 52.2853C98.6578 52.1538 97.9437 52.1538 97.8665 52.2853C97.799 52.3966 99.3139 53.9446 99.7385 54.1975C99.9025 54.2886 100.211 54.5314 100.424 54.7338C100.646 54.9463 100.877 55.1183 100.935 55.1183C101.003 55.1183 101.263 55.3206 101.514 55.5736C101.774 55.8265 102.035 56.0288 102.093 56.0288C102.257 56.0288 103.029 56.8281 103.029 56.99C103.029 57.0608 102.961 57.1721 102.884 57.243C102.691 57.415 102.701 58.0524 102.913 58.3256C103.058 58.5178 103.183 58.5583 103.888 58.5785L104.698 58.6089L104.93 59.054C105.055 59.2969 105.152 59.5599 105.152 59.6206C105.152 59.6915 105.219 59.8028 105.296 59.8736C105.374 59.9444 105.441 60.0962 105.441 60.2176C105.441 60.339 105.528 60.6021 105.634 60.8145C105.74 61.0169 105.827 61.2698 105.827 61.3609C105.827 61.4621 105.895 61.6341 105.972 61.7352C106.049 61.8465 106.117 61.9983 106.117 62.0691C106.117 62.1399 106.252 62.3929 106.406 62.6256C106.686 63.0202 106.696 63.091 106.696 64.0724C106.696 65.2056 106.638 65.3371 106.146 65.3371C105.837 65.3371 105.827 65.3169 105.827 64.9527C105.827 64.7503 105.895 64.4873 105.972 64.3861C106.175 64.1028 106.146 63.4856 105.904 62.9898C105.615 62.3828 105.451 62.2006 105.181 62.2006C104.93 62.2006 104.91 62.2816 105.074 62.6458C105.161 62.8583 105.152 62.9392 105.026 63.091C104.92 63.2124 104.862 63.4552 104.862 63.779C104.862 64.2242 104.824 64.3254 104.534 64.6188C104.052 65.1044 103.946 65.0134 103.946 64.1129C103.946 63.5665 103.897 63.2934 103.782 63.1112C103.685 62.9797 103.608 62.7369 103.608 62.5952C103.608 62.3423 103.039 61.0573 102.826 60.8449C102.778 60.7842 102.739 60.683 102.739 60.6122C102.739 60.3693 101.649 59.2665 101.408 59.2665C100.925 59.2665 101.012 59.8331 101.601 60.4908C102.083 61.0169 102.45 61.7656 102.45 62.2006C102.45 62.5244 102.122 63.2529 101.852 63.5362C101.755 63.6374 101.572 63.7385 101.446 63.779C101.311 63.8094 101.157 63.9004 101.089 63.9814C101.031 64.0623 100.925 64.123 100.848 64.123C100.781 64.123 100.559 64.2343 100.366 64.376C100.163 64.5176 99.8929 64.6593 99.7578 64.6896C99.6227 64.7301 99.4201 64.811 99.3043 64.8818C99.1885 64.9628 98.6385 65.0538 98.0788 65.0943L97.056 65.1652L96.1007 64.6491C95.57 64.3658 95.1068 64.1635 95.0779 64.204C94.9428 64.3355 95.0489 64.5783 95.5025 65.2157C96.0139 65.924 96.2069 66.5108 95.9753 66.6626C95.763 66.8042 95.6182 66.7739 95.406 66.5513C95.1068 66.2376 94.9235 66.2882 94.9235 66.6828C94.9235 67.0268 94.7788 67.2595 94.5665 67.2595C94.4989 67.2595 94.441 67.2089 94.441 67.1381C94.441 67.0774 94.2577 66.7334 94.0358 66.3793C93.7656 65.9442 93.5437 65.7115 93.3796 65.6811C93.0998 65.6103 92.5787 65.3877 92.2024 65.1753C92.0673 65.1044 91.8068 65.0336 91.6235 65.0336C91.4498 65.0336 91.2182 64.9628 91.1217 64.8818C91.0156 64.8009 90.7743 64.7301 90.591 64.7301C90.398 64.72 90.1375 64.6593 90.0024 64.5783C89.6936 64.3962 88.6515 64.376 88.6515 64.5581C88.6515 64.6289 88.8927 64.9324 89.1918 65.236C89.491 65.5395 89.7708 65.8835 89.8191 65.9948C89.8659 66.1029 90.013 66.3638 90.1363 66.5826L90.1471 66.6019C90.3787 66.9965 90.3884 67.0673 90.3884 68.8885C90.3884 70.4466 90.3594 70.8007 90.2436 70.9019C90.1664 70.9727 90.0989 71.084 90.0989 71.1649C90.0989 71.3471 89.7901 71.5089 89.4524 71.5089C89.0664 71.5089 88.2655 71.0941 88.2655 70.8918C88.2655 70.8007 88.198 70.6692 88.1208 70.5984C88.0436 70.5275 87.9761 70.3859 87.9761 70.2847C87.9761 70.0216 87.5901 69.6271 87.2138 69.4955C86.7506 69.3336 86.6348 69.4854 86.8471 69.9407C86.934 70.1431 87.0111 70.3859 87.0111 70.4871C87.0111 70.5882 87.0787 70.7299 87.1559 70.8007C87.2331 70.8715 87.3006 71.0739 87.3006 71.2459C87.3006 71.4179 87.3875 71.6911 87.4936 71.8631C87.7059 72.197 87.7541 73.0266 87.5901 73.4718C87.5032 73.7247 87.4743 73.7348 86.6059 73.7348C85.9208 73.7348 85.612 73.7854 85.2839 73.9372C85.0523 74.0485 84.8111 74.1396 84.7436 74.1396C84.676 74.1396 84.5699 74.2003 84.5023 74.2812C84.4444 74.3621 84.2515 74.4431 84.0874 74.4633C83.8365 74.4836 83.7593 74.5544 83.6821 74.8174C83.5471 75.2626 83.5085 75.2829 83.19 75.1007C82.7655 74.868 82.4857 74.9085 82.4181 75.2019C82.3795 75.3638 82.4085 75.5257 82.4953 75.637C82.5628 75.728 82.7944 76.1631 83.0067 76.588C83.2865 77.1647 83.3541 77.4076 83.2769 77.4885C83.1514 77.62 82.6593 77.3873 82.283 77.013C81.9453 76.6892 81.183 76.4464 80.8549 76.5779C80.7198 76.6285 80.0637 76.669 79.3979 76.6488C78.7321 76.6386 78.0856 76.669 77.9601 76.7095C77.8058 76.76 77.6321 77.013 77.4102 77.5391L77.0821 78.2878H75.5189L75.0557 77.8325C74.8049 77.5796 74.5057 77.3772 74.3996 77.3772C74.2935 77.3772 74.1391 77.2761 74.0619 77.1648C73.9557 76.9826 73.8689 76.9624 73.618 77.0231C73.1934 77.1142 73.232 77.4885 73.7242 78.0551C73.8882 78.2575 74.0233 78.2878 74.5829 78.2878C75.104 78.2878 75.2391 78.3182 75.2391 78.4396C75.2391 78.6521 73.811 78.6521 73.5408 78.4396C73.4443 78.3586 73.2224 78.2878 73.0583 78.2878C72.904 78.2878 72.682 78.217 72.5759 78.136C72.4794 78.0551 72.2575 77.9843 72.0934 77.9843C71.939 77.9843 71.7171 77.9135 71.611 77.8325C71.5145 77.7516 71.2153 77.6807 70.9645 77.6807C70.7136 77.6807 70.3759 77.6099 70.2215 77.529C70.0671 77.4481 69.7004 77.3671 69.4109 77.3671C68.9574 77.357 68.8127 77.3974 68.5136 77.6403C68.0311 78.0247 67.732 78.3586 67.5004 78.7937C67.4039 78.9859 67.2109 79.3299 67.0855 79.5525C66.9504 79.7751 66.8057 80.0685 66.7478 80.2102C66.6899 80.3518 66.5451 80.5744 66.4197 80.7161C66.1688 81.0095 65.7828 81.6874 65.7828 81.8492C65.7828 81.9099 65.667 82.0921 65.532 82.2742C65.2328 82.6587 64.5284 83.7817 64.5284 83.8728C64.5284 83.9133 64.3354 84.237 64.0942 84.6013C63.853 84.9756 63.66 85.3297 63.66 85.4006C63.66 85.4815 63.5538 85.6434 63.4188 85.7749C63.2837 85.9065 63.0907 86.1999 62.9845 86.4225C62.8784 86.6552 62.6468 87.0801 62.4538 87.3735C62.2705 87.6771 62.1161 87.9603 62.1161 88.0109C62.1161 88.0514 61.9907 88.2436 61.8459 88.4258C61.5661 88.7596 61.4793 88.9013 61.0065 89.9029C60.8617 90.2065 60.5722 90.7427 60.36 91.1171C59.9928 91.7456 59.8293 92.1545 59.8423 92.4385L62.367 93.5858L63.7695 94.2232C63.7103 94.1506 63.6429 94.0705 63.5732 93.9905Z" stroke="#E93737"/>
<path fill-rule="evenodd" clip-rule="evenodd" d="M41.1387 30.9167C41.1194 32.6569 41.0711 33.6181 41.0036 33.6889C40.8878 33.8104 40.8685 33.7699 40.6852 32.5254C40.5501 31.5743 40.6273 28.1647 40.801 27.5475L40.9168 27.1428L41.0422 27.6891C41.129 28.0837 41.158 29.0247 41.1387 30.9167ZM58.1599 91.9467C58.3771 91.9467 58.4706 91.9342 58.5353 91.8445L59.8423 92.4385C59.8461 92.5203 59.8645 92.5916 59.8968 92.655C60.0512 92.9484 59.9354 93.0698 59.6363 92.9484C59.4143 92.8573 59.3468 92.8775 59.2021 93.0799C59.1056 93.2114 59.0284 93.3936 59.0284 93.4846C59.0284 93.606 58.9512 93.6667 58.8257 93.6667C58.7099 93.6667 58.4494 93.7173 58.2564 93.778C57.7547 93.9399 57.0696 93.8084 56.7126 93.4947C56.2204 93.0597 56.1915 92.918 56.5196 92.5133C56.838 92.139 57.3976 91.9467 58.1599 91.9467Z" fill="#E93737"/>
</svg>
